HIERARCHY
ROOT Hips
{
	OFFSET 0.000000 0.000000 0.000000
	CHANNELS 6 Xposition Yposition Zposition Xrotation Yrotation Zrotation
	JOINT LeftUpLeg_virtual
	{
		OFFSET 0.000000 0.000000 0.000000
		CHANNELS 3 Xrotation Yrotation Zrotation
		JOINT LeftUpLeg
		{
			OFFSET 13.026900 -6.336304 -1.092800
			CHANNELS 3 Xrotation Yrotation Zrotation
			JOINT LeftLeg
			{
				OFFSET 0.524474 -46.096886 9.782700
				CHANNELS 3 Xrotation Yrotation Zrotation
				JOINT LeftFoot
				{
					OFFSET -0.524474 -53.427422 -12.948200
					CHANNELS 3 Xrotation Yrotation Zrotation
					JOINT LeftToeBase
					{
						OFFSET 0.192200 -14.009700 16.364100
						CHANNELS 3 Xrotation Yrotation Zrotation
						JOINT LeftToe_End
						{
							OFFSET -1.784700 -0.561700 9.474800
							CHANNELS 3 Xrotation Yrotation Zrotation
							End Site
							{
								OFFSET 0 0 0
							}
						}
					}
				}
			}
		}
	}
	JOINT RightUpLeg_virtual
	{
		OFFSET 0.000000 0.000000 0.000000
		CHANNELS 3 Xrotation Yrotation Zrotation
		JOINT RightUpLeg
		{
			OFFSET -12.883000 -6.336304 -1.092800
			CHANNELS 3 Xrotation Yrotation Zrotation
			JOINT RightLeg
			{
				OFFSET -0.524587 -46.096825 9.782800
				CHANNELS 3 Xrotation Yrotation Zrotation
				JOINT RightFoot
				{
					OFFSET 0.524587 -53.427383 -12.948300
					CHANNELS 3 Xrotation Yrotation Zrotation
					JOINT RightToeBase
					{
						OFFSET -0.192200 -14.009700 16.364100
						CHANNELS 3 Xrotation Yrotation Zrotation
						JOINT RightToe_End
						{
							OFFSET 1.784700 -0.561700 9.474800
							CHANNELS 3 Xrotation Yrotation Zrotation
							End Site
							{
								OFFSET 0 0 0
							}
						}
					}
				}
			}
		}
	}
	JOINT Spine_virtual
	{
		OFFSET 0.000000 0.000000 0.000000
		CHANNELS 3 Xrotation Yrotation Zrotation
		JOINT Spine
		{
			OFFSET 0.072000 7.257294 -0.789700
			CHANNELS 3 Xrotation Yrotation Zrotation
			JOINT Spine1
			{
				OFFSET 0.000000 12.508769 -0.658067
				CHANNELS 3 Xrotation Yrotation Zrotation
				JOINT Spine1_split
				{
					OFFSET 0.000000 12.508769 -0.658067
					CHANNELS 3 Xrotation Yrotation Zrotation
					JOINT Spine2
					{
						OFFSET 0.000000 12.508769 -0.658067
						CHANNELS 3 Xrotation Yrotation Zrotation
						JOINT Neck_virtual
						{
							OFFSET 0.000000 0.000000 0.000000
							CHANNELS 3 Xrotation Yrotation Zrotation
							JOINT Neck
							{
								OFFSET 0.000000 14.033295 7.520400
								CHANNELS 3 Xrotation Yrotation Zrotation
								JOINT Head
								{
									OFFSET 0.000000 8.198502 5.703100
									CHANNELS 3 Xrotation Yrotation Zrotation
									JOINT HeadTop_End
									{
										OFFSET 0.000000 17.760803 13.332701
										CHANNELS 3 Xrotation Yrotation Zrotation
										End Site
										{
											OFFSET 0 0 0
										}
									}
								}
							}
						}
						JOINT LeftShoulder_virtual
						{
							OFFSET 0.000000 0.000000 0.000000
							CHANNELS 3 Xrotation Yrotation Zrotation
							JOINT LeftShoulder
							{
								OFFSET 6.292450 5.785301 -0.669000
								CHANNELS 3 Xrotation Yrotation Zrotation
								JOINT LeftShoulder_split
								{
									OFFSET 6.292450 5.785301 -0.669000
									CHANNELS 3 Xrotation Yrotation Zrotation
									JOINT LeftArm
									{
										OFFSET 13.907140 -6.093903 1.965100
										CHANNELS 3 Xrotation Yrotation Zrotation
										JOINT LeftForeArm
										{
											OFFSET 34.140198 0.000000 0.000000
											CHANNELS 3 Xrotation Yrotation Zrotation
											JOINT LeftHand
											{
												OFFSET 40.960209 0.000000 0.000000
												CHANNELS 3 Xrotation Yrotation Zrotation
												End Site
												{
													OFFSET 0 0 0
												}
											}
										}
									}
								}
							}
						}
						JOINT RightShoulder_virtual
						{
							OFFSET 0.000000 0.000000 0.000000
							CHANNELS 3 Xrotation Yrotation Zrotation
							JOINT RightShoulder
							{
								OFFSET -6.292450 5.785301 -0.669000
								CHANNELS 3 Xrotation Yrotation Zrotation
								JOINT RightShoulder_split
								{
									OFFSET -6.292450 5.785301 -0.669000
									CHANNELS 3 Xrotation Yrotation Zrotation
									JOINT RightArm
									{
										OFFSET -13.907140 -6.093903 1.965100
										CHANNELS 3 Xrotation Yrotation Zrotation
										JOINT RightForeArm
										{
											OFFSET -34.140198 0.000000 0.000000
											CHANNELS 3 Xrotation Yrotation Zrotation
											JOINT RightHand
											{
												OFFSET -40.960209 0.000000 0.000000
												CHANNELS 3 Xrotation Yrotation Zrotation
												End Site
												{
													OFFSET 0 0 0
												}
											}
										}
									}
								}
							}
						}
					}
				}
			}
		}
	}
}
MOTION
Frames: 4
Frame Time: 0.03333333
3.351245 103.830063 -9.180363 0.000000 0.000000 0.000000 1.989257 -58.106735 1.766804 -53.257980 15.652630 41.319725 61.442606 6.919432 1.863355 12.819060 3.061835 -9.394745 2.702703 -0.000503 0.000006 0.000000 0.000000 0.000000 1.989257 -58.106735 1.766804 -32.478946 -22.322665 -32.220328 39.638928 6.142788 0.188315 -10.878387 -1.105374 15.355730 0.000325 -0.000144 -0.000006 0.000000 0.000000 0.000000 1.989257 -58.106735 1.766804 6.410652 -1.266636 -7.095825 2.302360 0.246425 -2.720643 0.000000 0.000000 0.000000 0.000000 0.000000 0.000000 2.263249 0.270393 -2.742160 -0.715103 1.650184 2.809462 -4.982351 48.928593 -4.222266 0.000000 0.000000 0.000000 2.263249 0.270393 -2.742160 9.923209 13.444413 -5.009172 0.000000 0.000000 0.000000 21.285202 -1.661098 -53.959420 -25.803229 -58.169975 -19.085529 0.000000 0.000000 0.000000 2.263249 0.270393 -2.742160 -1.294574 1.302040 0.172572 0.000000 0.000000 0.000000 14.334622 15.789669 53.538397 -3.232999 44.898409 2.971797 0.000000 0.000000 0.000000 
3.010699 102.761681 -9.185246 0.000000 0.000000 0.000000 4.997652 -64.047237 5.703678 -47.422946 9.619474 34.912464 57.976449 5.406262 1.802920 5.080632 3.251681 -13.953714 2.074136 -0.000527 0.000016 0.000000 0.000000 0.000000 4.997652 -64.047237 5.703678 -36.166852 -17.728569 -31.653955 42.355321 6.375535 -0.264017 -11.287215 1.257634 14.997268 0.000274 -0.000178 0.000010 0.000000 0.000000 0.000000 4.997652 -64.047237 5.703678 6.024086 -0.067688 -9.417595 2.022904 1.037171 -3.225559 0.000000 0.000000 0.000000 0.000000 0.000000 0.000000 1.954053 1.061968 -3.259242 -0.427863 1.561224 3.150429 -6.501608 52.691146 -2.930373 0.000000 0.000000 0.000000 1.954053 1.061968 -3.259242 8.323263 13.077831 -7.024608 0.000000 0.000000 0.000000 9.541101 6.100885 -50.685625 -17.718195 -52.472607 -11.271224 0.000000 0.000000 0.000000 1.954053 1.061968 -3.259242 -1.250377 0.958163 0.166083 0.000000 0.000000 0.000000 14.011431 15.962907 54.635926 -3.654925 37.198730 3.123682 0.000000 0.000000 0.000000 
2.444038 101.838814 -8.449642 0.000000 0.000000 0.000000 4.516659 -68.056449 5.682387 -42.947533 7.616365 33.089958 53.481293 2.125639 1.572678 -2.513246 0.640133 -13.571214 2.145200 -0.000529 -0.000003 0.000000 0.000000 0.000000 4.516659 -68.056449 5.682387 -36.179912 -14.116452 -30.296288 43.969537 6.764899 -0.698980 -11.854843 1.388719 15.392987 0.000318 -0.000171 -0.000001 0.000000 0.000000 0.000000 4.516659 -68.056449 5.682387 7.425250 0.488041 -9.811806 2.596585 1.518469 -3.801019 0.000000 0.000000 0.000000 0.000000 0.000000 0.000000 2.492143 1.563047 -3.857252 -0.932581 1.253269 2.928706 -9.210478 55.518117 -1.362797 0.000000 0.000000 0.000000 2.492143 1.563047 -3.857252 7.224914 11.907269 -8.568574 0.000000 0.000000 0.000000 -2.264326 11.705522 -47.207549 -12.391275 -47.836350 -6.593977 0.000000 0.000000 0.000000 2.492143 1.563047 -3.857252 -1.065458 1.265482 0.198263 0.000000 0.000000 0.000000 14.656631 14.472734 55.166000 -4.528749 30.845947 3.374013 0.000000 0.000000 0.000000 
2.279429 100.994934 -7.234592 0.000000 0.000000 0.000000 4.753823 -69.963048 6.273509 -40.858987 7.882903 31.341723 49.254639 -4.484726 1.090188 -6.969336 -2.048501 -9.941965 3.881876 -0.000519 -0.000015 0.000000 0.000000 0.000000 4.753823 -69.963048 6.273509 -36.063375 -11.149120 -29.765210 44.949092 6.338562 -1.176789 -12.197886 1.044902 16.663824 -0.001691 -0.000178 0.000003 0.000000 0.000000 0.000000 4.753823 -69.963048 6.273509 9.331112 -0.073277 -9.709211 3.397631 1.758917 -4.272322 0.000000 0.000000 0.000000 0.000000 0.000000 0.000000 3.242728 1.798969 -4.382678 -0.898299 1.097344 2.897778 -13.021779 57.653968 -0.236439 0.000000 0.000000 0.000000 3.242728 1.798969 -4.382678 6.161460 9.525339 -8.649466 0.000000 0.000000 0.000000 -13.098016 17.120286 -45.158779 -10.163047 -44.135699 -4.830603 0.000000 0.000000 0.000000 3.242728 1.798969 -4.382678 -0.733837 1.485826 0.243880 0.000000 0.000000 0.000000 13.715253 13.538931 54.727902 -5.815017 26.602187 3.807465 0.000000 0.000000 0.000000 
